<?xml version="1.0" standalone="no"?>
<!DOCTYPE svg PUBLIC "-//W3C//DTD SVG 20010904//EN"
 "http://www.w3.org/TR/2001/REC-SVG-20010904/DTD/svg10.dtd">
<svg version="1.0" xmlns="http://www.w3.org/2000/svg"
 width="191.000000pt" height="191.000000pt" viewBox="0 0 191.000000 191.000000"
 preserveAspectRatio="xMidYMid meet">
<metadata>
Created by potrace 1.11, written by Peter Selinger 2001-2013
</metadata>
<g transform="translate(0.000000,191.000000) scale(0.100000,-0.100000)"
fill="#000000" stroke="none">
<path d="M686 1713 c-1 -1 -20 -5 -42 -8 -68 -11 -78 -13 -109 -25 -16 -6 -31
-11 -33 -11 -1 1 -18 -6 -38 -14 -20 -8 -38 -15 -40 -15 -3 0 -23 -12 -47 -27
-23 -15 -45 -26 -49 -25 -5 1 -8 -3 -8 -8 0 -5 -8 -10 -17 -10 -9 0 -13 -3
-10 -6 3 -4 -12 -20 -33 -35 -22 -16 -40 -34 -40 -40 0 -5 -5 -7 -10 -4 -5 3
-10 -1 -10 -9 0 -9 -4 -16 -8 -16 -10 0 -79 -93 -74 -99 2 -2 0 -7 -5 -10 -30
-20 -103 -205 -103 -260 l0 -26 126 2 c69 0 127 3 130 6 3 2 7 17 10 32 3 15
15 46 26 69 12 22 21 44 20 49 -1 4 2 7 8 7 5 0 10 7 10 16 0 8 5 12 10 9 6
-3 10 -1 10 6 0 7 23 35 52 61 55 52 168 112 233 124 52 9 167 13 180 6 5 -3
21 -7 36 -9 15 -1 53 -14 84 -27 30 -14 59 -26 63 -27 4 -1 12 -9 19 -18 7 -9
13 -12 13 -8 0 4 26 -18 59 -50 32 -32 57 -61 55 -65 -3 -4 0 -9 6 -13 16 -10
58 -97 65 -137 l7 -36 -125 0 c-121 1 -126 2 -138 24 -15 29 -75 84 -109 102
-39 20 -121 29 -165 18 -47 -11 -115 -51 -115 -68 0 -6 -3 -8 -7 -5 -6 7 -40
-35 -34 -42 1 -2 -3 -7 -11 -12 -7 -5 -13 -12 -14 -16 0 -4 -4 -26 -9 -48 -11
-51 -10 -93 3 -126 6 -15 8 -30 5 -33 -3 -3 2 -8 11 -12 9 -3 16 -13 16 -21 0
-19 84 -91 113 -97 7 -2 24 -6 38 -10 45 -13 92 -12 127 1 17 7 32 11 32 7 0
-3 7 2 16 10 8 9 23 16 31 16 9 0 13 3 10 7 -4 3 5 15 20 25 16 10 24 18 19
18 -5 0 0 8 12 18 18 16 40 19 147 19 69 0 125 -3 125 -8 0 -4 -4 -18 -9 -31
-5 -13 -10 -27 -11 -33 -6 -24 -76 -123 -109 -155 -49 -46 -95 -84 -101 -83
-3 0 -21 -7 -41 -18 -79 -40 -224 -56 -314 -35 -53 13 -155 58 -155 69 0 6 -3
8 -6 4 -3 -3 -13 0 -21 6 -33 26 -109 103 -121 122 -27 43 -72 141 -72 158 0
19 2 19 -155 20 l-100 0 1 -29 c1 -37 8 -76 16 -89 3 -5 9 -25 13 -43 3 -17
11 -32 16 -32 6 0 8 -4 4 -9 -3 -5 2 -17 11 -25 8 -9 12 -16 8 -16 -4 0 1 -9
11 -20 10 -11 14 -20 9 -20 -5 0 -4 -4 1 -8 6 -4 22 -23 35 -42 28 -42 157
-170 171 -170 5 0 22 -11 37 -25 15 -14 35 -25 44 -25 10 0 18 -4 18 -9 0 -8
94 -46 143 -58 135 -32 258 -33 377 -4 25 7 52 13 62 16 9 2 29 10 46 19 16 8
32 12 36 9 3 -4 6 -1 6 5 0 6 16 16 34 23 19 7 33 15 31 19 -2 3 10 12 26 19
35 15 172 145 162 154 -3 4 -2 7 4 7 11 0 83 104 83 120 0 5 4 10 10 10 5 0 9
3 8 8 -1 4 4 23 11 42 20 51 20 50 32 107 l11 52 100 -2 c72 -2 102 1 105 10
3 7 13 15 24 18 11 4 18 9 16 13 -2 4 10 19 25 34 15 15 28 25 28 23 0 -3 19
17 43 42 23 26 51 55 62 65 20 17 19 17 -20 19 -22 0 -115 1 -208 1 l-167 1
-6 26 c-3 14 -10 40 -15 57 -5 17 -12 41 -14 54 -2 12 -13 38 -25 57 -11 19
-20 41 -20 49 0 8 -5 14 -12 14 -6 0 -8 3 -5 7 4 3 0 15 -10 25 -9 10 -13 18
-9 18 4 0 -6 12 -21 26 -15 14 -21 22 -13 18 8 -4 -25 32 -73 80 -49 47 -95
86 -103 86 -8 0 -17 7 -20 15 -4 8 -14 15 -24 15 -10 0 -21 7 -24 16 -4 9 -9
14 -13 11 -3 -3 -17 0 -32 7 -28 15 -113 45 -146 52 -51 11 -222 24 -229 17z"/>
</g>
</svg>
